<?xml version="1.0" encoding="utf-8"?>
<!-- Generator: Adobe Illustrator 23.0.5, SVG Export Plug-In . SVG Version: 6.00 Build 0)  -->
<svg version="1.1" id="Capa_1" xmlns="http://www.w3.org/2000/svg" xmlns:xlink="http://www.w3.org/1999/xlink" x="0px" y="0px"
	 viewBox="0 0 595.28 841.89" style="enable-background:new 0 0 595.28 841.89;" xml:space="preserve">
<style type="text/css">
	.st0{clip-path:url(#SVGID_2_);fill:#FF0000;}
	.st1{fill:#FF0000;}
</style>
<g>
	<g>
		<defs>
			<rect id="SVGID_1_" x="-1704.49" y="0.71" width="2664.49" height="1126.59"/>
		</defs>
		<clipPath id="SVGID_2_">
			<use xlink:href="#SVGID_1_"  style="overflow:visible;"/>
		</clipPath>
		<path className="st0" d="M458.49,377.55h0.63c-0.87,0-1.72-0.08-2.54-0.23c-10.22-1.87-18.4-15.19-24.32-39.59
			c-4.98-20.51-5.1-41.7-5.24-64.14l0-0.26c-0.13-21.82-5.02-40.26-14.13-53.33c-8.52-12.22-19.22-19-29.75-22.59
			c-1.64-14.72-12.73-27.2-24.55-26.62c-12.4,0.61-23.41,13.89-23.87,27.98c-16.65,6.96-30.11,20.93-37.94,40.2
			c-8.16,20.09-7.58,42.5-7.03,64.17c0.14,5.35,0.26,10.4,0.26,15.42v0.28c0,39.4-33.93,66.21-34.27,66.47
			c-1.05,0.81-1.82,2.05-2.27,3.47c-0.04,0.71-0.18,1.4-0.42,2.07c-0.02,0.23-0.04,0.47-0.04,0.71v33.45c0,3.97,2.48,7.18,5.54,7.18
			h199.93c3.06,0,5.54-3.22,5.54-7.18v-40.26C464.02,380.76,461.54,377.55,458.49,377.55z M453.02,417.18h-189v-21.82
			c-0.05-0.49-0.03-0.99,0.05-1.48c-0.28-1.93,0.42-4.01,2.09-5.09c1.55-2.94,5.59-4.8,8.88-5.02
			c11.49-13.21,25.98-35.62,25.98-64.74v-0.44c0-5.26-0.14-10.68-0.27-15.92c-0.51-19.82-1.03-40.33,5.77-57.07
			c9.56-23.54,29.56-37.59,53.51-37.59c13.54,0,32.29,3.74,44.71,21.55c9.19,13.17,11.2,31.11,11.28,43.84l0,0.1
			c0.13,22.51,0.27,45.78,5.65,68.34c6.95,29.14,17.49,45.68,31.35,49.18V417.18z"/>
		<path className="st0" d="M266.14,267.06c1.47-28.49,11.43-50.14,30.74-64.24c1.97-1.44,3.97-0.74,4.91,1.57c0.89,2.19,0.21,4.6-1.78,6
			c-6.28,4.42-11.68,10.19-16.09,17.47c-7.26,11.98-10.98,25.62-11.13,40.88c-0.02,1.99-0.45,3.63-1.93,4.53
			c-2.08,1.29-4.45-0.4-4.7-3.37C266.08,268.98,266.14,268.02,266.14,267.06"/>
		<path className="st0" d="M451.06,267.06c-1.47-28.49-11.44-50.14-30.74-64.24c-1.97-1.44-3.97-0.74-4.91,1.57
			c-0.89,2.19-0.21,4.6,1.79,6c6.28,4.42,11.68,10.19,16.09,17.47c7.26,11.98,10.98,25.62,11.13,40.88
			c0.02,1.99,0.46,3.63,1.93,4.53c2.08,1.29,4.45-0.4,4.7-3.37C451.13,268.98,451.06,268.02,451.06,267.06"/>
	</g>
	<circle className="st1" cx="358.17" cy="436.36" r="19.41"/>
	<g>
		<g>
			<path className="st1" d="M253.85,384.08c0.12,1.73,0.15,3.46,0.09,5.2c1.42-0.59,2.85-1.18,4.27-1.77c-0.23-0.22-0.44-0.44-0.64-0.69
				c0.13,0.17,0.26,0.34,0.39,0.51c-0.21-0.27-0.38-0.56-0.52-0.87c0.08,0.2,0.17,0.4,0.25,0.6c-0.08-0.21-0.15-0.43-0.18-0.65
				c0.03,0.22,0.06,0.44,0.09,0.66c-0.03-0.23-0.03-0.46,0-0.69c-0.03,0.22-0.06,0.44-0.09,0.66c0.03-0.23,0.1-0.44,0.18-0.66
				c-0.08,0.2-0.17,0.4-0.25,0.6c0.12-0.28,0.28-0.54,0.46-0.78c-0.13,0.17-0.26,0.34-0.39,0.51c0.29-0.38,0.64-0.7,1.01-0.99
				c-0.17,0.13-0.34,0.26-0.51,0.39c0.63-0.48,1.32-0.85,2.04-1.16c-0.2,0.08-0.4,0.17-0.6,0.25c0.86-0.36,1.75-0.62,2.67-0.75
				c-0.22,0.03-0.44,0.06-0.66,0.09c0.49-0.07,0.99-0.1,1.49-0.04c0.6,0.06,1.36-0.32,1.77-0.73c0.43-0.43,0.76-1.15,0.73-1.77
				c-0.03-0.65-0.24-1.32-0.73-1.77c-0.52-0.47-1.07-0.66-1.77-0.73c-1.01-0.1-2.08,0.07-3.07,0.31c-1.12,0.27-2.21,0.71-3.22,1.25
				c-2.11,1.13-4.12,3.15-4.09,5.71c0.02,1.67,0.9,3.17,2.09,4.3c0.74,0.7,1.79,0.92,2.73,0.52c0.93-0.39,1.5-1.27,1.54-2.28
				c0.06-1.73,0.03-3.47-0.09-5.2c-0.05-0.67-0.25-1.28-0.73-1.77c-0.43-0.43-1.15-0.76-1.77-0.73
				C255.08,381.64,253.75,382.68,253.85,384.08L253.85,384.08z"/>
		</g>
	</g>
	<g>
		<g>
			<path className="st1" d="M260.69,392.26c0.44-3.18,0.3-6.38-0.68-9.46c-0.39-1.25-1.76-2.17-3.08-1.75c-1.25,0.4-2.17,1.74-1.75,3.08
				c0.32,1,0.55,2.02,0.69,3.06c-0.03-0.22-0.06-0.44-0.09-0.66c0.22,1.64,0.22,3.29,0.01,4.92c0.03-0.22,0.06-0.44,0.09-0.66
				c-0.01,0.05-0.01,0.1-0.02,0.15c-0.1,0.7-0.12,1.29,0.25,1.93c0.3,0.52,0.9,1.01,1.49,1.15c0.64,0.15,1.36,0.11,1.93-0.25
				C260.04,393.43,260.6,392.89,260.69,392.26L260.69,392.26z"/>
		</g>
	</g>
	<g>
		<g>
			<path className="st1" d="M266.34,375.17c-3.51,2.21-7.45,3.57-11.03,5.64c-1.13,0.65-1.63,2.29-0.9,3.42c0.74,1.14,2.21,1.6,3.42,0.9
				c3.58-2.07,7.52-3.43,11.03-5.64c1.11-0.7,1.65-2.26,0.9-3.42C269.05,374.96,267.52,374.42,266.34,375.17L266.34,375.17z"/>
		</g>
	</g>
	<g>
		<g>
			<path className="st1" d="M264.06,390.56c3.22,0,3.22-5,0-5C260.84,385.56,260.84,390.56,264.06,390.56L264.06,390.56z"/>
		</g>
	</g>
	<g>
		<g>
			<path className="st1" d="M270.59,384.74c3.22,0,3.22-5,0-5C267.37,379.74,267.37,384.74,270.59,384.74L270.59,384.74z"/>
		</g>
	</g>
	<g>
		<g>
			<path className="st1" d="M274.67,379.37c-0.05-0.03-0.1-0.07-0.15-0.09c-0.01-0.01-0.03-0.01-0.04-0.02
				c-0.2-0.09-0.41-0.18-0.61-0.26c-0.03-0.01-0.05-0.02-0.08-0.03c-0.06-0.02-0.11-0.03-0.17-0.04c-0.25-0.04-0.55-0.1-0.82-0.1
				c-0.16,0-0.33,0.03-0.49,0.05c-0.16,0.02-0.34,0.03-0.5,0.08c-0.03,0.01-0.05,0.02-0.08,0.03c-0.22,0.08-0.44,0.18-0.66,0.28
				c-0.06,0.03-0.11,0.06-0.16,0.09c-0.29,0.16-0.53,0.37-0.7,0.64c-0.22,0.24-0.37,0.52-0.45,0.85c-0.1,0.33-0.12,0.66-0.04,1
				c0.02,0.33,0.11,0.64,0.3,0.93c0.13,0.17,0.26,0.34,0.39,0.51c0.31,0.31,0.68,0.52,1.1,0.64c0.22,0.03,0.44,0.06,0.66,0.09
				c0.45,0,0.87-0.12,1.26-0.34c0.06-0.04,0.12-0.07,0.18-0.1c-0.2,0.08-0.4,0.17-0.6,0.25c0.09-0.04,0.19-0.06,0.29-0.08
				c-0.22,0.03-0.44,0.06-0.66,0.09c0.1-0.01,0.2-0.01,0.3,0c-0.22-0.03-0.44-0.06-0.66-0.09c0.09,0.01,0.18,0.04,0.27,0.07
				c-0.2-0.08-0.4-0.17-0.6-0.25c0.07,0.03,0.15,0.07,0.21,0.12c0.29,0.18,0.6,0.28,0.93,0.3c0.33,0.07,0.66,0.06,1-0.04
				c0.33-0.08,0.61-0.23,0.85-0.45c0.27-0.18,0.49-0.41,0.64-0.7c0.08-0.2,0.17-0.4,0.25-0.6c0.12-0.44,0.12-0.89,0-1.33
				c-0.08-0.2-0.17-0.4-0.25-0.6C275.35,379.89,275.05,379.59,274.67,379.37L274.67,379.37z"/>
		</g>
	</g>
	<g>
		<g>
			<path className="st1" d="M272.71,384.56c3.22,0,3.22-5,0-5C269.49,379.56,269.48,384.56,272.71,384.56L272.71,384.56z"/>
		</g>
	</g>
	<g>
		<g>
			<path className="st1" d="M272.43,379.76c-2.07,0.6-4.15,1.2-6.22,1.8c-0.61,0.18-1.17,0.6-1.49,1.15c-0.31,0.54-0.45,1.33-0.25,1.93
				c0.41,1.28,1.73,2.14,3.08,1.75c2.07-0.6,4.15-1.2,6.22-1.8c0.61-0.18,1.17-0.6,1.49-1.15c0.31-0.54,0.45-1.33,0.25-1.93
				C275.09,380.23,273.77,379.37,272.43,379.76L272.43,379.76z"/>
		</g>
	</g>
	<g>
		<g>
			<path className="st1" d="M271.99,379.56c-1.2,0.02-2.35,0.4-3.36,1.02c-0.88,0.54-1.66,1.23-2.48,1.86c0.17-0.13,0.34-0.26,0.51-0.39
				c-0.54,0.42-1.1,0.8-1.73,1.08c0.2-0.08,0.4-0.17,0.6-0.25c-0.94,0.39-1.92,0.55-2.67,1.31c-1.22,1.23-1.38,3.34-0.07,4.58
				c0.6,0.57,1.43,0.89,2.26,0.87c0.88-0.02,1.61-0.36,2.29-0.91c0.71-0.58,1.14-1.47,1.69-2.19c-0.13,0.17-0.26,0.34-0.39,0.51
				c0.42-0.54,0.87-1.05,1.36-1.53c0.93-0.92,0.99-2.62,0-3.54c-1-0.92-2.54-0.98-3.54,0c-1.01,1.01-1.81,2.16-2.65,3.31
				c0.13-0.17,0.26-0.34,0.39-0.51c-0.12,0.16-0.25,0.29-0.4,0.41c0.17-0.13,0.34-0.26,0.51-0.39c-0.06,0.04-0.12,0.08-0.18,0.11
				c0.2-0.08,0.4-0.17,0.6-0.25c-0.1,0.04-0.18,0.06-0.29,0.07c0.22-0.03,0.44-0.06,0.66-0.09c-0.07,0.01-0.13,0.01-0.2,0
				c0.22,0.03,0.44,0.06,0.66,0.09c-0.06-0.01-0.12-0.02-0.18-0.05c0.2,0.08,0.4,0.17,0.6,0.25c-0.06-0.02-0.11-0.05-0.16-0.09
				c0.17,0.13,0.34,0.26,0.51,0.39c-0.02-0.02-0.04-0.04-0.07-0.06c0.13,0.17,0.26,0.34,0.39,0.51c-0.04-0.05-0.08-0.11-0.1-0.17
				c0.08,0.2,0.17,0.4,0.25,0.6c-0.01-0.03-0.02-0.06-0.03-0.1c0.03,0.22,0.06,0.44,0.09,0.66c-0.01-0.07-0.01-0.13,0-0.2
				c-0.03,0.22-0.06,0.44-0.09,0.66c0.01-0.07,0.03-0.14,0.06-0.2c-0.08,0.2-0.17,0.4-0.25,0.6c0.03-0.07,0.06-0.13,0.1-0.19
				c-0.13,0.17-0.26,0.34-0.39,0.51c0.07-0.09,0.14-0.16,0.23-0.23c-0.17,0.13-0.34,0.26-0.51,0.39c0.1-0.07,0.19-0.12,0.3-0.17
				c-0.2,0.08-0.4,0.17-0.6,0.25c0.38-0.15,0.77-0.24,1.15-0.39c0.54-0.22,1.04-0.45,1.53-0.76c0.8-0.52,1.53-1.15,2.28-1.73
				c-0.17,0.13-0.34,0.26-0.51,0.39c0.55-0.43,1.12-0.83,1.77-1.11c-0.2,0.08-0.4,0.17-0.6,0.25c0.3-0.12,0.61-0.21,0.93-0.25
				c-0.22,0.03-0.44,0.06-0.66,0.09c0.13-0.01,0.26-0.02,0.39-0.03c1.31-0.03,2.56-1.13,2.5-2.5
				C274.43,380.73,273.39,379.53,271.99,379.56L271.99,379.56z"/>
		</g>
	</g>
	<g>
		<g>
			<path className="st1" d="M272.24,379.16c-1.26,0.31-2.39,0.98-3.43,1.74c-0.9,0.66-1.77,1.36-2.8,1.81c0.2-0.08,0.4-0.17,0.6-0.25
				c-0.31,0.13-0.63,0.24-0.97,0.31c-1.28,0.27-2.15,1.84-1.75,3.08c0.44,1.35,1.7,2.04,3.08,1.75c1.29-0.28,2.46-0.97,3.52-1.75
				c0.92-0.67,1.82-1.4,2.88-1.85c-0.2,0.08-0.4,0.17-0.6,0.25c0.26-0.11,0.52-0.19,0.79-0.26c1.27-0.31,2.15-1.82,1.75-3.08
				C274.89,379.59,273.6,378.83,272.24,379.16L272.24,379.16z"/>
		</g>
	</g>
	<g>
		<g>
			<path className="st1" d="M272.04,379.03c-1.02,0.3-1.87,0.9-2.59,1.67c-0.5,0.54-0.97,1.08-1.55,1.54c0.17-0.13,0.34-0.26,0.51-0.39
				c-0.76,0.58-1.61,1.02-2.49,1.4c0.2-0.08,0.4-0.17,0.6-0.25c-0.85,0.35-1.73,0.64-2.6,0.93c-1.24,0.4-2.17,1.75-1.75,3.08
				c0.4,1.24,1.74,2.18,3.08,1.75c1.61-0.52,3.26-1.07,4.72-1.93c0.77-0.45,1.52-1.01,2.15-1.63c0.52-0.51,0.95-1.11,1.53-1.56
				c-0.17,0.13-0.34,0.26-0.51,0.39c0.16-0.12,0.32-0.21,0.5-0.3c-0.2,0.08-0.4,0.17-0.6,0.25c0.11-0.05,0.22-0.08,0.33-0.12
				c1.25-0.37,2.17-1.78,1.75-3.08C274.7,379.51,273.38,378.64,272.04,379.03L272.04,379.03z"/>
		</g>
	</g>
	<g>
		<g>
			<path className="st1" d="M264.94,390.03c3.22,0,3.22-5,0-5C261.72,385.03,261.72,390.03,264.94,390.03L264.94,390.03z"/>
		</g>
	</g>
	<g>
		<g>
			<path className="st1" d="M257.29,380.91c-0.06,0-0.13,0-0.19,0.01c-0.28,0.02-0.56,0.07-0.83,0.11c-0.13,0.02-0.26,0.05-0.38,0.09
				c-0.16,0.05-0.31,0.12-0.47,0.19c-0.15,0.06-0.31,0.13-0.46,0.2c-0.12,0.06-0.23,0.13-0.34,0.21c-0.29,0.16-0.53,0.37-0.7,0.64
				c-0.22,0.24-0.37,0.52-0.45,0.85c-0.1,0.33-0.12,0.66-0.04,1c0.02,0.33,0.11,0.64,0.3,0.93c0.13,0.17,0.26,0.34,0.39,0.51
				c0.31,0.31,0.68,0.52,1.1,0.64c0.22,0.03,0.44,0.06,0.66,0.09c0.45,0,0.87-0.12,1.26-0.34c0.16-0.11,0.32-0.21,0.5-0.28
				c-0.2,0.08-0.4,0.17-0.6,0.25c0.19-0.08,0.39-0.13,0.6-0.16c-0.22,0.03-0.44,0.06-0.66,0.09c0.1-0.01,0.21-0.02,0.31-0.02
				c0.34,0.01,0.67-0.06,0.96-0.22c0.31-0.1,0.58-0.27,0.8-0.52c0.24-0.23,0.42-0.49,0.52-0.8c0.16-0.3,0.23-0.62,0.22-0.96
				c-0.03-0.22-0.06-0.44-0.09-0.66c-0.12-0.42-0.33-0.79-0.64-1.1c-0.17-0.13-0.34-0.26-0.51-0.39
				C258.17,381.03,257.75,380.91,257.29,380.91L257.29,380.91z"/>
		</g>
	</g>
	<g>
		<g>
			<path className="st1" d="M266,389.32c3.22,0,3.22-5,0-5C262.78,384.32,262.78,389.32,266,389.32L266,389.32z"/>
		</g>
	</g>
	<g>
		<g>
			<path className="st1" d="M266.88,388.62c3.22,0,3.22-5,0-5C263.67,383.62,263.66,388.62,266.88,388.62L266.88,388.62z"/>
		</g>
	</g>
	<g>
		<g>
			<path className="st1" d="M267.85,387.82c3.22,0,3.22-5,0-5C264.64,382.82,264.63,387.82,267.85,387.82L267.85,387.82z"/>
		</g>
	</g>
	<g>
		<g>
			<path className="st1" d="M272.79,384.82c3.22,0,3.22-5,0-5C269.58,379.82,269.57,384.82,272.79,384.82L272.79,384.82z"/>
		</g>
	</g>
	<g>
		<g>
			<path className="st1" d="M272.35,385.18c3.22,0,3.22-5,0-5C269.14,380.18,269.13,385.18,272.35,385.18L272.35,385.18z"/>
		</g>
	</g>
	<g>
		<g>
			<path className="st1" d="M271.65,385.62c3.22,0,3.22-5,0-5C268.43,380.62,268.42,385.62,271.65,385.62L271.65,385.62z"/>
		</g>
	</g>
	<g>
		<g>
			<path className="st1" d="M271.03,385.88c3.22,0,3.22-5,0-5C267.81,380.88,267.81,385.88,271.03,385.88L271.03,385.88z"/>
		</g>
	</g>
	<g>
		<g>
			<path className="st1" d="M270.41,386.24c3.22,0,3.22-5,0-5C267.19,381.24,267.19,386.24,270.41,386.24L270.41,386.24z"/>
		</g>
	</g>
	<g>
		<g>
			<path className="st1" d="M270.55,380.69c-0.35,0.29-0.7,0.58-1.05,0.85c0.17-0.13,0.34-0.26,0.51-0.39c-0.63,0.49-1.3,0.91-2.02,1.26
				c-0.76,0.36-1.53,0.7-2.3,1.05c-0.54,0.24-1,0.95-1.15,1.49c-0.16,0.6-0.09,1.4,0.25,1.93c0.34,0.53,0.86,1,1.49,1.15
				c0.22,0.03,0.44,0.06,0.66,0.09c0.45,0,0.87-0.12,1.26-0.34c0.99-0.45,2.01-0.85,2.95-1.38c1.05-0.6,1.99-1.39,2.92-2.16
				c0.47-0.39,0.73-1.19,0.73-1.77c0-0.61-0.27-1.35-0.73-1.77c-0.48-0.44-1.1-0.76-1.77-0.73c-0.22,0.03-0.44,0.06-0.66,0.09
				C271.23,380.17,270.86,380.38,270.55,380.69L270.55,380.69z"/>
		</g>
	</g>
	<g>
		<g>
			<path className="st1" d="M270.98,380.32c-0.67,0.65-1.35,1.29-2.09,1.86c0.17-0.13,0.34-0.26,0.51-0.39c-1.2,0.92-2.51,1.69-3.9,2.28
				c0.2-0.08,0.4-0.17,0.6-0.25c-0.43,0.18-0.86,0.34-1.29,0.49c-0.62,0.21-1.16,0.57-1.49,1.15c-0.31,0.54-0.45,1.33-0.25,1.93
				c0.4,1.23,1.75,2.19,3.08,1.75c1.55-0.52,3.07-1.21,4.45-2.08c1.43-0.91,2.72-2.02,3.93-3.19c0.94-0.91,0.98-2.63,0-3.54
				C273.5,379.39,271.99,379.35,270.98,380.32L270.98,380.32z"/>
		</g>
	</g>
	<g>
		<g>
			<path className="st1" d="M266.44,388.97c3.22,0,3.22-5,0-5C263.22,383.97,263.22,388.97,266.44,388.97L266.44,388.97z"/>
		</g>
	</g>
	<g>
		<g>
			<path className="st1" d="M267.06,388.68c3.22,0,3.22-5,0-5C263.84,383.68,263.84,388.68,267.06,388.68L267.06,388.68z"/>
		</g>
	</g>
	<g>
		<g>
			<path className="st1" d="M266.76,388.85c3.22,0,3.22-5,0-5C263.55,383.85,263.54,388.85,266.76,388.85L266.76,388.85z"/>
		</g>
	</g>
	<g>
		<g>
			<path className="st1" d="M256.12,386.03c3.22,0,3.22-5,0-5C252.9,381.03,252.9,386.03,256.12,386.03L256.12,386.03z"/>
		</g>
	</g>
	<g>
		<g>
			<path className="st1" d="M256.24,385.79c3.22,0,3.22-5,0-5C253.02,380.79,253.01,385.79,256.24,385.79L256.24,385.79z"/>
		</g>
	</g>
	<g>
		<g>
			<path className="st1" d="M255.41,387.62c3.22,0,3.22-5,0-5C252.19,382.62,252.19,387.62,255.41,387.62L255.41,387.62z"/>
		</g>
	</g>
	<g>
		<g>
			<path className="st1" d="M255.59,391.32c3.22,0,3.22-5,0-5C252.37,386.32,252.37,391.32,255.59,391.32L255.59,391.32z"/>
		</g>
	</g>
	<g>
		<g>
			<path className="st1" d="M255.47,391.38c3.22,0,3.22-5,0-5C252.25,386.38,252.25,391.38,255.47,391.38L255.47,391.38z"/>
		</g>
	</g>
	<g>
		<g>
			<path className="st1" d="M253.02,387.29c0.05,0.56-0.03,1.12-0.08,1.67c-0.07,0.74-0.03,1.53,0.2,2.24c0.2,0.62,0.58,1.16,1.15,1.49
				c0.29,0.18,0.6,0.28,0.93,0.3c0.33,0.07,0.66,0.06,1-0.04c0.6-0.2,1.19-0.57,1.49-1.15c0.31-0.58,0.46-1.28,0.25-1.93
				c-0.05-0.17-0.09-0.33-0.11-0.5c0.03,0.22,0.06,0.44,0.09,0.66c-0.11-0.92,0.17-1.83,0.08-2.74c0.01-0.34-0.06-0.67-0.22-0.96
				c-0.1-0.31-0.27-0.58-0.52-0.8c-0.23-0.24-0.49-0.42-0.8-0.52c-0.3-0.16-0.62-0.23-0.96-0.22c-0.65,0.03-1.32,0.24-1.77,0.73
				C253.33,385.98,252.96,386.63,253.02,387.29L253.02,387.29z"/>
		</g>
	</g>
	<g>
		<g>
			<path className="st1" d="M255.18,390.26c3.22,0,3.22-5,0-5C251.96,385.26,251.95,390.26,255.18,390.26L255.18,390.26z"/>
		</g>
	</g>
	<g>
		<g>
			<path className="st1" d="M255.59,387.09c3.22,0,3.22-5,0-5C252.37,382.09,252.37,387.09,255.59,387.09L255.59,387.09z"/>
		</g>
	</g>
	<g>
		<g>
			<path className="st1" d="M256.18,385.79c3.22,0,3.22-5,0-5C252.96,380.79,252.95,385.79,256.18,385.79L256.18,385.79z"/>
		</g>
	</g>
	<g>
		<g>
			<path className="st1" d="M255.29,390.62c3.22,0,3.22-5,0-5C252.08,385.62,252.07,390.62,255.29,390.62L255.29,390.62z"/>
		</g>
	</g>
	<g>
		<g>
			<path className="st1" d="M255.24,390.5c3.22,0,3.22-5,0-5C252.02,385.5,252.01,390.5,255.24,390.5L255.24,390.5z"/>
		</g>
	</g>
</g>
</svg>
