<svg id="Capa_1" data-name="Capa 1" xmlns="http://www.w3.org/2000/svg" xmlns:xlink="http://www.w3.org/1999/xlink" viewBox="0 0 1444.76 470.53"><defs><style>.cls-1{fill:none;}.cls-2{clip-path:url(#clip-path);}.cls-3{fill:#e30613;}.cls-4{fill:#706f6f;}.cls-5{fill:#0856a4;}</style><clipPath id="clip-path"><rect className="cls-1" width="1444.76" height="470.53"/></clipPath></defs><title>LOGO BLINDIN</title><g className="cls-2"><path className="cls-3" d="M1119.11,202.8c-7,.27-13.64-4.68-16-11.06V242L1035,152.47h-29.49V297.84h31.57V205.43l70.4,92.41h27.2V191.45c-2,6-8.44,11.08-15.6,11.35"/><path className="cls-4" d="M447.76,327.12H421.93a1,1,0,0,0-1,1v3.26a1,1,0,0,0,1,1h10.24V361.3a1,1,0,0,0,1,1h3.4a1,1,0,0,0,1-1V332.38h10.19a1,1,0,0,0,1-1v-3.26a1,1,0,0,0-1-1"/><path className="cls-4" d="M479.68,326.66c-9.91,0-18.28,8.16-18.28,17.82a18.28,18.28,0,0,0,36.56,0c0-9.66-8.37-17.82-18.28-17.82m0,30.62a12.62,12.62,0,1,1,12.75-12.8,12.64,12.64,0,0,1-12.75,12.8"/><path className="cls-4" d="M527.12,327.12H516.24a1,1,0,0,0-1,1V361.3a1,1,0,0,0,1,1h3.39a1,1,0,0,0,1-1V349.75h6.49c6.93,0,11.59-4.54,11.59-11.31s-4.66-11.32-11.59-11.32m0,17.38h-6.49V332.38h6.49a6.06,6.06,0,0,1,0,12.12"/><path className="cls-4" d="M603.87,327.12H584.63a1,1,0,0,0-1,1V361.3a1,1,0,0,0,1,1h19.24a1,1,0,0,0,1-1v-3.25a1,1,0,0,0-1-1H589V344.92h13.92a1,1,0,0,0,1-1v-3.25a1,1,0,0,0-1-1H589v-7.29h14.85a1,1,0,0,0,1-1v-3.26a1,1,0,0,0-1-1"/><path className="cls-4" d="M653,327.12h-3.39a1,1,0,0,0-1,1v25.46l-19-26a1,1,0,0,0-.81-.42h-4.09a1,1,0,0,0-1,1V361.3a1,1,0,0,0,1,1h3.39a1,1,0,0,0,1-1V335.84l19,26.05a1,1,0,0,0,.81.41H653a1,1,0,0,0,1-1V328.12a1,1,0,0,0-1-1"/><path className="cls-4" d="M730.51,327.12h-3.39a1,1,0,0,0-1,1v25.46l-19-26a1,1,0,0,0-.81-.42h-4.09a1,1,0,0,0-1,1V361.3a1,1,0,0,0,1,1h3.39a1,1,0,0,0,1-1V335.84l19,26.05a1,1,0,0,0,.81.41h4.09a1,1,0,0,0,1-1V328.12a1,1,0,0,0-1-1"/><path className="cls-4" d="M767.07,326.66c-9.91,0-18.28,8.16-18.28,17.82a18.29,18.29,0,0,0,36.57,0c0-9.66-8.38-17.82-18.29-17.82m0,30.62a12.62,12.62,0,1,1,12.76-12.8,12.64,12.64,0,0,1-12.76,12.8"/><path className="cls-4" d="M824.36,327.12H798.52a1,1,0,0,0-1,1v3.26a1,1,0,0,0,1,1h10.25V361.3a1,1,0,0,0,1,1h3.39a1,1,0,0,0,1-1V332.38h10.2a1,1,0,0,0,1-1v-3.26a1,1,0,0,0-1-1"/><path className="cls-4" d="M845.87,327.12h-3.4a1,1,0,0,0-1,1V361.3a1,1,0,0,0,1,1h3.4a1,1,0,0,0,1-1V328.12a1,1,0,0,0-1-1"/><path className="cls-4" d="M897,352.4h-4.23a1,1,0,0,0-.78.37,12.39,12.39,0,0,1-9.77,4.6,12.82,12.82,0,0,1-12.8-12.8,12.81,12.81,0,0,1,22.5-8,1,1,0,0,0,.76.35h4.23a1,1,0,0,0,.87-.52,1,1,0,0,0,0-1,18.47,18.47,0,0,0-15.53-8.65c-9.93,0-18.33,8.16-18.33,17.82a18.3,18.3,0,0,0,34,9.35,1,1,0,0,0,0-1,1,1,0,0,0-.87-.51"/><path className="cls-4" d="M919.92,327.12h-3.39a1,1,0,0,0-1,1V361.3a1,1,0,0,0,1,1h3.39a1,1,0,0,0,1-1V328.12a1,1,0,0,0-1-1"/><path className="cls-4" d="M957.07,327.71a1,1,0,0,0-.91-.59h-3.67a1,1,0,0,0-.91.59l-14.92,33.18a1,1,0,0,0,.91,1.41h3.67a1,1,0,0,0,.92-.59l5.68-12.61h13l5.68,12.61a1,1,0,0,0,.91.59h3.67a1,1,0,0,0,.84-.46,1,1,0,0,0,.08-.95Zm1.4,16.14h-8.29l4.16-9.2Z"/><path className="cls-4" d="M997.48,341h0c-4-1.26-5.29-2.35-5.29-4.48a4.64,4.64,0,0,1,5-4.49,4.79,4.79,0,0,1,4.49,3.21,1,1,0,0,0,1,.7h3.72a1,1,0,0,0,1-1.17,10,10,0,0,0-10.14-8.13c-6.1,0-10.52,4.16-10.52,9.88s4.09,8.31,10.23,10.2c5.5,1.7,6.54,3.22,6.54,5.41,0,3.61-3.14,5.22-6.25,5.22a6.07,6.07,0,0,1-6.17-4.68,1,1,0,0,0-1-.8H986.5a1,1,0,0,0-1,1.13c.72,5.65,5.63,9.75,11.68,9.75,6.83,0,11.78-4.47,11.78-10.62,0-6.93-5.92-9.38-11.48-11.13"/><path className="cls-5" d="M391.3,275.41a33.83,33.83,0,0,1-11,12.46,51.35,51.35,0,0,1-17.21,7.48,92.84,92.84,0,0,1-22.29,2.49h-69V152.47h67.38q22.38,0,35.13,10.18T387,190.06v.41a35.44,35.44,0,0,1-1.55,11,34.18,34.18,0,0,1-4.12,8.62,33.14,33.14,0,0,1-6,6.75,40.06,40.06,0,0,1-7.32,5q12.6,4.78,19.85,13t7.23,22.74V258a37.79,37.79,0,0,1-3.83,17.44m-35.84-80q0-7.28-5.39-11.11t-15.58-3.84H302.92v30.73h29.49q10.59,0,16.83-3.63t6.22-11.74Zm8.1,58.15a13.7,13.7,0,0,0-5.6-11.53q-5.61-4.25-18.07-4.26h-37v32h38q10.59,0,16.61-3.85t6-11.94Z"/><polygon className="cls-5" points="421.71 297.84 421.71 152.47 453.69 152.47 453.69 268.98 526.17 268.98 526.17 297.84 421.71 297.84"/><rect className="cls-5" x="551.72" y="152.47" width="31.98" height="145.37"/><polygon className="cls-5" points="722.01 297.84 651.61 205.43 651.61 297.84 620.04 297.84 620.04 152.47 649.53 152.47 717.65 241.98 717.65 152.47 749.22 152.47 749.22 297.84 722.01 297.84"/><path className="cls-5" d="M912.45,253.81a67.76,67.76,0,0,1-15.89,23.06,75.09,75.09,0,0,1-24.51,15.37,84.65,84.65,0,0,1-31.25,5.6H784.1V152.47h56.7a85.88,85.88,0,0,1,31.25,5.5,73.71,73.71,0,0,1,24.51,15.27,68.06,68.06,0,0,1,15.89,22.94,72.25,72.25,0,0,1,5.6,28.56v.41a72.88,72.88,0,0,1-5.6,28.66m-27.83-28.66a47.31,47.31,0,0,0-3.22-17.65,41.47,41.47,0,0,0-8.93-13.91,39.6,39.6,0,0,0-13.81-9,48.06,48.06,0,0,0-17.86-3.21H816.09V269H840.8a49.29,49.29,0,0,0,17.86-3.11,38.4,38.4,0,0,0,13.81-8.93,41.81,41.81,0,0,0,8.93-13.71,46.25,46.25,0,0,0,3.22-17.65Z"/><rect className="cls-5" x="947.96" y="152.47" width="31.98" height="145.37"/><path className="cls-3" d="M1173,163.88a10.3,10.3,0,0,1-1.38-.1c-5.54-.78-10-6.34-13.19-16.53-2.7-8.57-2.76-17.42-2.84-26.79v-.14c-.07-9.09-2.71-16.77-7.64-22.22a32.43,32.43,0,0,0-16.09-9.41,13.43,13.43,0,0,0-13.28-11.09c-6.71.25-12.67,5.78-12.92,11.65A34.84,34.84,0,0,0,1085.13,106c-4.41,8.37-4.1,17.7-3.8,26.73.08,2.23.14,4.34.14,6.43v.35c0,16.28-18.2,27.35-18.38,27.46a3,3,0,0,0-1.46,2.58v13.95a3,3,0,0,0,3,3H1173a3,3,0,0,0,3-3V166.88a3,3,0,0,0-3-3m-3,16.63H1067.63v-9.32c4.85-3.28,19.84-14.78,19.84-31.67v-.35c0-2.19-.07-4.45-.14-6.63-.28-8.24-.56-16.77,3.11-23.74,5.16-9.79,16-15.63,28.9-15.63,7.32,0,17.44,1.55,24.15,9,5,5.48,6,12.94,6.09,18.24v.14c.08,9.4.15,19.12,3.12,28.54,3.83,12.17,9.65,19.08,17.29,20.54Z"/><path className="cls-3" d="M1068.53,111.25c.8-11.9,6.2-21,16.67-26.83a1.81,1.81,0,1,1,1.69,3.16,27.93,27.93,0,0,0-8.73,7.3,27.5,27.5,0,0,0-6,17.07,1.89,1.89,0,0,1-1.05,1.9,1.77,1.77,0,0,1-2.54-1.41,9.45,9.45,0,0,1,0-1.19"/><path className="cls-3" d="M1168.8,111.25c-.8-11.9-6.2-21-16.67-26.83a1.81,1.81,0,1,0-1.69,3.16,27.78,27.78,0,0,1,8.72,7.3,27.45,27.45,0,0,1,6,17.07,1.9,1.9,0,0,0,1,1.9,1.77,1.77,0,0,0,2.55-1.41,11.81,11.81,0,0,0,0-1.19"/></g></svg>